<?xml version="1.0" encoding="UTF-8" standalone="no"?>
<!-- Created with Inkscape (http://www.inkscape.org/) -->
<svg
   xmlns:dc="http://purl.org/dc/elements/1.1/"
   xmlns:cc="http://creativecommons.org/ns#"
   xmlns:rdf="http://www.w3.org/1999/02/22-rdf-syntax-ns#"
   xmlns:svg="http://www.w3.org/2000/svg"
   xmlns="http://www.w3.org/2000/svg"
   xmlns:sodipodi="http://sodipodi.sourceforge.net/DTD/sodipodi-0.dtd"
   xmlns:inkscape="http://www.inkscape.org/namespaces/inkscape"
   width="744.09448819"
   height="1052.3622047"
   id="svg2"
   sodipodi:version="0.32"
   inkscape:version="0.46"
   inkscape:export-filename="/home/erigami/public_html/wordpress/wp-content/plugins/timerelease/pill_posted.png"
   inkscape:export-xdpi="1.75"
   inkscape:export-ydpi="1.75"
   sodipodi:docname="pill.svg"
   inkscape:output_extension="org.inkscape.output.svg.inkscape">
  <defs
     id="defs4">
    <inkscape:perspective
       sodipodi:type="inkscape:persp3d"
       inkscape:vp_x="0 : 526.18109 : 1"
       inkscape:vp_y="0 : 1000 : 0"
       inkscape:vp_z="744.09448 : 526.18109 : 1"
       inkscape:persp3d-origin="372.04724 : 350.78739 : 1"
       id="perspective10" />
  </defs>
  <sodipodi:namedview
     id="base"
     pagecolor="#ffffff"
     bordercolor="#666666"
     borderopacity="1.0"
     gridtolerance="10000"
     guidetolerance="10"
     objecttolerance="10"
     inkscape:pageopacity="0.0"
     inkscape:pageshadow="2"
     inkscape:zoom="0.71808822"
     inkscape:cx="-55.289636"
     inkscape:cy="506.27593"
     inkscape:document-units="px"
     inkscape:current-layer="g3182"
     showgrid="false"
     showguides="true"
     inkscape:guide-bbox="true"
     inkscape:window-width="1680"
     inkscape:window-height="1000"
     inkscape:window-x="0"
     inkscape:window-y="25" />
  <metadata
     id="metadata7">
    <rdf:RDF>
      <cc:Work
         rdf:about="">
        <dc:format>image/svg+xml</dc:format>
        <dc:type
           rdf:resource="http://purl.org/dc/dcmitype/StillImage" />
      </cc:Work>
    </rdf:RDF>
  </metadata>
  <g
     inkscape:label="Layer 1"
     inkscape:groupmode="layer"
     id="layer1">
    <g
       id="g3182"
       transform="matrix(0.7071068,0.7071068,-0.7071068,0.7071068,488.4386,-176.22804)"
       inkscape:export-filename="/home/erigami/tmp/my_pill.png"
       inkscape:export-xdpi="49.98"
       inkscape:export-ydpi="49.98">
      <path
         id="rect3166"
         d="M 473.82904,683.14087 L 476.2438,902.8942 C 481.23937,970.9157 504.78001,1028.0826 565.68514,1029.5579 C 625.16517,1030.9986 672.8272,980.68776 676.61265,915.12654 L 667.06768,661.29357 C 615.98768,699.8919 574.75476,703.04076 548.29244,701.26609 C 520.84542,700.47612 502.26077,702.64027 473.82904,683.14087 z"
         style="fill:#ababab;fill-opacity:1;fill-rule:evenodd;stroke:none;stroke-width:12.50000000000000000;stroke-miterlimit:4;stroke-opacity:1"
         sodipodi:nodetypes="ccscccc" />
      <path
         style="fill:none;fill-opacity:1;stroke:#a0a0a0;stroke-width:35.99999807999999746;stroke-miterlimit:4;stroke-opacity:1;stroke-dasharray:none"
         d="M 536.5,407.5625 C 502.98922,407.5625 469.50624,419.76676 443.25,444.15625 C 444.14221,443.1949 444.4375,442.84375 444.4375,442.84375 L 442.21875,445.0625 C 442.16518,445.11326 442.11601,445.16789 442.0625,445.21875 C 441.21006,446.02902 440.36766,446.85109 439.53125,447.6875 L 133.71875,753.53125 C 80.188745,807.06126 80.18875,893.93875 133.71875,947.46875 C 187.04484,1000.7949 273.45294,1000.9823 327.03125,948.0625 L 327.53125,947.5625 L 327.65625,947.46875 L 633.46875,641.65625 C 686.99876,588.12624 686.99877,501.21752 633.46875,447.6875 C 606.70375,420.9225 571.60482,407.5625 536.5,407.5625 z"
         transform="matrix(0.7071068,-0.7071068,0.7071068,0.7071068,-220.7662,469.99028)"
         id="path2387"
         sodipodi:nodetypes="ccccsccsccccsc" />
    </g>
  </g>
</svg>
